<svg xmlns="http://www.w3.org/2000/svg" viewBox="0 0 64 64">
  <defs>
    <linearGradient id="bg" x1="10" y1="6" x2="54" y2="58" gradientUnits="userSpaceOnUse">
      <stop stop-color="#13b66f"/>
      <stop offset="1" stop-color="#08753f"/>
    </linearGradient>
  </defs>
  <rect width="64" height="64" rx="15" fill="url(#bg)"/>
  <path d="M14 23v-7h7M43 16h7v7M50 41v7h-7M21 48h-7v-7" fill="none" stroke="#eafff3" stroke-width="4" stroke-linecap="round" stroke-linejoin="round"/>
  <circle cx="32" cy="31" r="15" fill="#eafff3"/>
  <path d="M45 18c-10.8.8-19.1 8.4-20.3 18.4C35 37.4 43.5 29.8 45 18Z" fill="#16a34a"/>
  <path d="M25 44c1.4-9.8 6.9-18 17-24" fill="none" stroke="#075e35" stroke-width="3" stroke-linecap="round"/>
  <g fill="#075e35">
    <rect x="20" y="42" width="3" height="8" rx="1"/>
    <rect x="26" y="42" width="2" height="8" rx="1"/>
    <rect x="31" y="42" width="4" height="8" rx="1"/>
    <rect x="38" y="42" width="2" height="8" rx="1"/>
    <rect x="43" y="42" width="3" height="8" rx="1"/>
  </g>
</svg>
